<?xml version="1.0" encoding="utf-8"?><svg viewBox="0 0 120 25" xmlns="http://www.w3.org/2000/svg" xmlns:xlink="http://www.w3.org/1999/xlink"><style>:root>svg{display:none}:root>svg:target{display:block}</style><svg xmlns:svgjs="http://svgjs.com/svgjs" viewBox="0.238 0 12.525 22" id="arrow-down" xmlns="http://www.w3.org/2000/svg"><svg width="13" height="22" viewBox="2.015 1.01 11.96 21.008"><path paint-order="stroke fill markers" fill-rule="evenodd" d="M2.307 16.722l4.983 5.003c.39.39 1.02.39 1.41 0l4.982-5.003a1.002 1.002 0 00-.704-1.708H8.99V2.011c0-.553-.446-1-.996-1a.998.998 0 00-.997 1v13.003H3.012a1.002 1.002 0 00-.705 1.708zm8.265.293l-2.577 2.588-2.578-2.588h5.155z"/></svg></svg><svg viewBox="0 0 120 25" id="logo_zonex" xmlns="http://www.w3.org/2000/svg"><path fill-rule="evenodd" d="M3 3h17L10 20h9v4H2L12 8H3V3zm32 21c-6.075 0-11-4.925-11-11 0-.666.07-1.315.182-1.949l5.727 5.09c1.057 1.71 2.933 2.859 5.09 2.859a6 6 0 100-12c-2.243 0-4.176 1.246-5.205 3.07l-3.822-3.345C27.959 3.871 31.259 2 35 2c6.075 0 11 4.925 11 11s-4.925 11-11 11zm17 0V14l5 3v7h-5zm0-16l19 16V2h-5v11L52 2v6zm41-6H78v22h15v-4H83v-5h9v-4h-9V6h10V2zm26 22h-6l-5-6.875L103 24h-6l8-11-8-11h6l5 6.875L113 2h6l-8 11 8 11z"/></svg></svg>